<svg width="44" height="37" viewBox="0 0 44 37" fill="none" xmlns="http://www.w3.org/2000/svg">
<rect x="1.5" y="1.5" width="41" height="34" rx="11.5" stroke="#989898" stroke-width="3"/>
<mask id="path-2-outside-1_34_4" maskUnits="userSpaceOnUse" x="6" y="9" width="32" height="20" fill="black">
<rect fill="white" x="6" y="9" width="32" height="20"/>
<path d="M16.328 13.206C14.6707 13.206 13.3507 13.7267 12.368 14.768C11.3853 15.7947 10.894 17.1953 10.894 18.97C10.894 20.73 11.4 22.1307 12.412 23.172C13.424 24.2133 14.7293 24.734 16.328 24.734C17.6627 24.734 18.968 24.3307 20.244 23.524L21.168 25.79C19.6867 26.7433 17.978 27.22 16.042 27.22C13.534 27.22 11.5247 26.4793 10.014 24.998C8.50333 23.502 7.748 21.4927 7.748 18.97C7.748 16.4327 8.48867 14.4233 9.97 12.942C11.4513 11.4607 13.4753 10.72 16.042 10.72C17.978 10.72 19.6867 11.1967 21.168 12.15L20.244 14.416C18.968 13.6093 17.6627 13.206 16.328 13.206ZM31.3671 13.206C29.7097 13.206 28.3897 13.7267 27.4071 14.768C26.4244 15.7947 25.9331 17.1953 25.9331 18.97C25.9331 20.73 26.4391 22.1307 27.4511 23.172C28.4631 24.2133 29.7684 24.734 31.3671 24.734C32.7017 24.734 34.0071 24.3307 35.2831 23.524L36.2071 25.79C34.7257 26.7433 33.0171 27.22 31.0811 27.22C28.5731 27.22 26.5637 26.4793 25.0531 24.998C23.5424 23.502 22.7871 21.4927 22.7871 18.97C22.7871 16.4327 23.5277 14.4233 25.0091 12.942C26.4904 11.4607 28.5144 10.72 31.0811 10.72C33.0171 10.72 34.7257 11.1967 36.2071 12.15L35.2831 14.416C34.0071 13.6093 32.7017 13.206 31.3671 13.206Z"/>
</mask>
<path d="M16.328 13.206C14.6707 13.206 13.3507 13.7267 12.368 14.768C11.3853 15.7947 10.894 17.1953 10.894 18.97C10.894 20.73 11.4 22.1307 12.412 23.172C13.424 24.2133 14.7293 24.734 16.328 24.734C17.6627 24.734 18.968 24.3307 20.244 23.524L21.168 25.79C19.6867 26.7433 17.978 27.22 16.042 27.22C13.534 27.22 11.5247 26.4793 10.014 24.998C8.50333 23.502 7.748 21.4927 7.748 18.97C7.748 16.4327 8.48867 14.4233 9.97 12.942C11.4513 11.4607 13.4753 10.72 16.042 10.72C17.978 10.72 19.6867 11.1967 21.168 12.15L20.244 14.416C18.968 13.6093 17.6627 13.206 16.328 13.206ZM31.3671 13.206C29.7097 13.206 28.3897 13.7267 27.4071 14.768C26.4244 15.7947 25.9331 17.1953 25.9331 18.97C25.9331 20.73 26.4391 22.1307 27.4511 23.172C28.4631 24.2133 29.7684 24.734 31.3671 24.734C32.7017 24.734 34.0071 24.3307 35.2831 23.524L36.2071 25.79C34.7257 26.7433 33.0171 27.22 31.0811 27.22C28.5731 27.22 26.5637 26.4793 25.0531 24.998C23.5424 23.502 22.7871 21.4927 22.7871 18.97C22.7871 16.4327 23.5277 14.4233 25.0091 12.942C26.4904 11.4607 28.5144 10.72 31.0811 10.72C33.0171 10.72 34.7257 11.1967 36.2071 12.15L35.2831 14.416C34.0071 13.6093 32.7017 13.206 31.3671 13.206Z" fill="black"/>
<path d="M12.368 14.768L13.0904 15.4595L13.0953 15.4543L12.368 14.768ZM12.412 23.172L11.6949 23.8689V23.8689L12.412 23.172ZM20.244 23.524L21.17 23.1464L20.7191 22.0406L19.7096 22.6787L20.244 23.524ZM21.168 25.79L21.7092 26.6309L22.4076 26.1815L22.094 25.4124L21.168 25.79ZM10.014 24.998L9.31034 25.7086L9.31386 25.712L10.014 24.998ZM9.97 12.942L9.26289 12.2349H9.26289L9.97 12.942ZM21.168 12.15L22.094 12.5276L22.4076 11.7585L21.7092 11.3091L21.168 12.15ZM20.244 14.416L19.7096 15.2613L20.7191 15.8994L21.17 14.7936L20.244 14.416ZM16.328 13.206V12.206C14.4428 12.206 12.8425 12.8081 11.6407 14.0817L12.368 14.768L13.0953 15.4543C13.8588 14.6452 14.8986 14.206 16.328 14.206V13.206ZM12.368 14.768L11.6456 14.0765C10.4431 15.3328 9.894 17.005 9.894 18.97H10.894H11.894C11.894 17.3857 12.3275 16.2565 13.0904 15.4595L12.368 14.768ZM10.894 18.97H9.894C9.894 20.9316 10.4644 22.6028 11.6949 23.8689L12.412 23.172L13.1291 22.4751C12.3356 21.6586 11.894 20.5284 11.894 18.97H10.894ZM12.412 23.172L11.6949 23.8689C12.9151 25.1246 14.4893 25.734 16.328 25.734V24.734V23.734C14.9694 23.734 13.9329 23.3021 13.1291 22.4751L12.412 23.172ZM16.328 24.734V25.734C17.8758 25.734 19.364 25.2634 20.7784 24.3693L20.244 23.524L19.7096 22.6787C18.572 23.3979 17.4495 23.734 16.328 23.734V24.734ZM20.244 23.524L19.318 23.9016L20.242 26.1676L21.168 25.79L22.094 25.4124L21.17 23.1464L20.244 23.524ZM21.168 25.79L20.6268 24.9491C19.3227 25.7884 17.8058 26.22 16.042 26.22V27.22V28.22C18.1502 28.22 20.0506 27.6983 21.7092 26.6309L21.168 25.79ZM16.042 27.22V26.22C13.7438 26.22 12.0038 25.5486 10.7141 24.284L10.014 24.998L9.31386 25.712C11.0456 27.4101 13.3242 28.22 16.042 28.22V27.22ZM10.014 24.998L10.7176 24.2875C9.43158 23.0139 8.748 21.2793 8.748 18.97H7.748H6.748C6.748 21.706 7.57509 23.9901 9.31035 25.7085L10.014 24.998ZM7.748 18.97H8.748C8.748 16.6381 9.42172 14.9045 10.6771 13.6491L9.97 12.942L9.26289 12.2349C7.55561 13.9422 6.748 16.2272 6.748 18.97H7.748ZM9.97 12.942L10.6771 13.6491C11.9303 12.3959 13.6771 11.72 16.042 11.72V10.72V9.72C13.2736 9.72 10.9723 10.5254 9.26289 12.2349L9.97 12.942ZM16.042 10.72V11.72C17.8058 11.72 19.3227 12.1516 20.6268 12.9909L21.168 12.15L21.7092 11.3091C20.0506 10.2417 18.1502 9.72 16.042 9.72V10.72ZM21.168 12.15L20.242 11.7724L19.318 14.0384L20.244 14.416L21.17 14.7936L22.094 12.5276L21.168 12.15ZM20.244 14.416L20.7784 13.5707C19.364 12.6766 17.8758 12.206 16.328 12.206V13.206V14.206C17.4495 14.206 18.572 14.5421 19.7096 15.2613L20.244 14.416ZM27.4071 14.768L28.1295 15.4595L28.1344 15.4543L27.4071 14.768ZM27.4511 23.172L26.7339 23.8689V23.8689L27.4511 23.172ZM35.2831 23.524L36.209 23.1464L35.7581 22.0406L34.7487 22.6787L35.2831 23.524ZM36.2071 25.79L36.7482 26.6309L37.4466 26.1815L37.133 25.4124L36.2071 25.79ZM25.0531 24.998L24.3494 25.7086L24.3529 25.712L25.0531 24.998ZM25.0091 12.942L24.302 12.2349V12.2349L25.0091 12.942ZM36.2071 12.15L37.133 12.5276L37.4466 11.7585L36.7482 11.3091L36.2071 12.15ZM35.2831 14.416L34.7487 15.2613L35.7581 15.8994L36.209 14.7936L35.2831 14.416ZM31.3671 13.206V12.206C29.4818 12.206 27.8816 12.8081 26.6798 14.0817L27.4071 14.768L28.1344 15.4543C28.8979 14.6452 29.9376 14.206 31.3671 14.206V13.206ZM27.4071 14.768L26.6846 14.0765C25.4822 15.3328 24.9331 17.005 24.9331 18.97H25.9331H26.9331C26.9331 17.3857 27.3666 16.2565 28.1295 15.4595L27.4071 14.768ZM25.9331 18.97H24.9331C24.9331 20.9316 25.5034 22.6028 26.7339 23.8689L27.4511 23.172L28.1682 22.4751C27.3747 21.6586 26.9331 20.5284 26.9331 18.97H25.9331ZM27.4511 23.172L26.7339 23.8689C27.9542 25.1246 29.5283 25.734 31.3671 25.734V24.734V23.734C30.0085 23.734 28.9719 23.3021 28.1682 22.4751L27.4511 23.172ZM31.3671 24.734V25.734C32.9149 25.734 34.4031 25.2634 35.8174 24.3693L35.2831 23.524L34.7487 22.6787C33.6111 23.3979 32.4886 23.734 31.3671 23.734V24.734ZM35.2831 23.524L34.3571 23.9016L35.2811 26.1676L36.2071 25.79L37.133 25.4124L36.209 23.1464L35.2831 23.524ZM36.2071 25.79L35.6659 24.9491C34.3618 25.7884 32.8449 26.22 31.0811 26.22V27.22V28.22C33.1893 28.22 35.0897 27.6983 36.7482 26.6309L36.2071 25.79ZM31.0811 27.22V26.22C28.7829 26.22 27.0428 25.5486 25.7532 24.284L25.0531 24.998L24.3529 25.712C26.0846 27.4101 28.3632 28.22 31.0811 28.22V27.22ZM25.0531 24.998L25.7567 24.2875C24.4706 23.0139 23.7871 21.2793 23.7871 18.97H22.7871H21.7871C21.7871 21.706 22.6142 23.9901 24.3494 25.7085L25.0531 24.998ZM22.7871 18.97H23.7871C23.7871 16.6381 24.4608 14.9045 25.7162 13.6491L25.0091 12.942L24.302 12.2349C22.5947 13.9422 21.7871 16.2272 21.7871 18.97H22.7871ZM25.0091 12.942L25.7162 13.6491C26.9694 12.3959 28.7161 11.72 31.0811 11.72V10.72V9.72C28.3127 9.72 26.0114 10.5254 24.302 12.2349L25.0091 12.942ZM31.0811 10.72V11.72C32.8449 11.72 34.3618 12.1516 35.6659 12.9909L36.2071 12.15L36.7482 11.3091C35.0897 10.2417 33.1893 9.72 31.0811 9.72V10.72ZM36.2071 12.15L35.2811 11.7724L34.3571 14.0384L35.2831 14.416L36.209 14.7936L37.133 12.5276L36.2071 12.15ZM35.2831 14.416L35.8174 13.5707C34.4031 12.6766 32.9149 12.206 31.3671 12.206V13.206V14.206C32.4886 14.206 33.6111 14.5421 34.7487 15.2613L35.2831 14.416Z" fill="white" mask="url(#path-2-outside-1_34_4)"/>
</svg>
